<svg width="401" height="101" viewBox="0 0 401 101" fill="none" xmlns="http://www.w3.org/2000/svg">
<path d="M2.5 27.5L42.5 2M42.8801 2.19104L82.5 27.5M83 28V74M82.5 74.5L70.5 83M70.1224 82.8198L2.5 40.5M2 40V28M54.4314 91.9701L2.97013 59.5685M54.5 92L42 99.5M41.4299 98.9634L2.96345 74.57M2.5 74V59.5" stroke="#F9F9F9" stroke-width="3" stroke-linecap="round" stroke-linejoin="round"/>
<path d="M14 39H73V43H51V63.5L48 61.5V43H45V59.5L42 57.5V43H39V55.5L37.5 54.5L36 53.5V43H17L14 41V39Z" fill="#F9F9F9"/>
<path d="M14 33H73L73 37H14L14 33Z" fill="#F9F9F9"/>
<path d="M14 27H73V31H14L14 27Z" fill="#F9F9F9"/>
<path d="M14 39H73V43H51V63.5L48 61.5V43H45V59.5L42 57.5V43H39V55.5L37.5 54.5L36 53.5V43H17L14 41V39Z" stroke="#F9F9F9" stroke-linecap="round"/>
<path d="M14 33H73L73 37H14L14 33Z" stroke="#F9F9F9" stroke-linecap="round"/>
<path d="M14 27H73V31H14L14 27Z" stroke="#F9F9F9" stroke-linecap="round"/>
<path d="M127.25 35.296H111.506V31.2H147.73V35.296H131.986V76H127.25V35.296ZM172.469 76.384C166.666 76.384 162.144 74.72 158.901 71.392C155.658 68.064 154.037 63.2213 154.037 56.864V31.2H158.773V56.672C158.773 61.8773 159.946 65.76 162.293 68.32C164.64 70.88 168.032 72.16 172.469 72.16C176.949 72.16 180.362 70.88 182.709 68.32C185.056 65.76 186.229 61.8773 186.229 56.672V31.2H190.837V56.864C190.837 63.2213 189.216 68.064 185.973 71.392C182.773 74.72 178.272 76.384 172.469 76.384ZM235.701 76L225.461 61.6C224.309 61.728 223.114 61.792 221.877 61.792H209.845V76H205.109V31.2H221.877C227.594 31.2 232.074 32.5653 235.317 35.296C238.559 38.0267 240.181 41.7813 240.181 46.56C240.181 50.0587 239.285 53.024 237.493 55.456C235.743 57.8453 233.226 59.5733 229.941 60.64L240.885 76H235.701ZM221.749 57.76C226.186 57.76 229.578 56.7787 231.925 54.816C234.271 52.8533 235.444 50.1013 235.444 46.56C235.444 42.9333 234.271 40.16 231.925 38.24C229.578 36.2773 226.186 35.296 221.749 35.296H209.845V57.76H221.749ZM288.799 31.2V76H284.895L256.095 39.648V76H251.359V31.2H255.263L284.127 67.552V31.2H288.799ZM321.469 76.384C315.666 76.384 311.144 74.72 307.901 71.392C304.658 68.064 303.037 63.2213 303.037 56.864V31.2H307.773V56.672C307.773 61.8773 308.946 65.76 311.293 68.32C313.64 70.88 317.032 72.16 321.469 72.16C325.949 72.16 329.362 70.88 331.709 68.32C334.056 65.76 335.229 61.8773 335.229 56.672V31.2H339.837V56.864C339.837 63.2213 338.216 68.064 334.973 71.392C331.773 74.72 327.272 76.384 321.469 76.384ZM370.877 31.2C376.594 31.2 381.074 32.5653 384.317 35.296C387.559 38.0267 389.181 41.7813 389.181 46.56C389.181 51.3387 387.559 55.0933 384.317 57.824C381.074 60.512 376.594 61.856 370.877 61.856H358.845V76H354.109V31.2H370.877ZM370.749 57.696C375.186 57.696 378.578 56.736 380.925 54.816C383.271 52.8533 384.444 50.1013 384.444 46.56C384.444 42.9333 383.271 40.16 380.925 38.24C378.578 36.2773 375.186 35.296 370.749 35.296H358.845V57.696H370.749Z" fill="#F9F9F9"/>
</svg>
