<svg width="85" height="101" viewBox="0 0 85 101" fill="none" xmlns="http://www.w3.org/2000/svg">
<path d="M2.5 27.5L42.5 2M42.8801 2.19104L82.5 27.5M83 28V74M82.5 74.5L70.5 83M70.1224 82.8198L2.5 40.5M2 40V28M54.4314 91.9701L2.97013 59.5685M54.5 92L42 99.5M41.4299 98.9634L2.96345 74.57M2.5 74V59.5" stroke="#F9F9F9" stroke-width="3" stroke-linecap="round" stroke-linejoin="round"/>
<path d="M14 39H73V43H51V63.5L48 61.5V43H45V59.5L42 57.5V43H39V55.5L37.5 54.5L36 53.5V43H17L14 41V39Z" fill="#F9F9F9"/>
<path d="M14 33H73L73 37H14L14 33Z" fill="#F9F9F9"/>
<path d="M14 27H73V31H14L14 27Z" fill="#F9F9F9"/>
<path d="M14 39H73V43H51V63.5L48 61.5V43H45V59.5L42 57.5V43H39V55.5L37.5 54.5L36 53.5V43H17L14 41V39Z" stroke="#F9F9F9" stroke-linecap="round"/>
<path d="M14 33H73L73 37H14L14 33Z" stroke="#F9F9F9" stroke-linecap="round"/>
<path d="M14 27H73V31H14L14 27Z" stroke="#F9F9F9" stroke-linecap="round"/>
</svg>
